<svg xmlns="http://www.w3.org/2000/svg" viewBox="0 0 1204 158"><defs><style>.a{fill:#3369b3;}.b{fill:none;stroke:#3369b3;stroke-linecap:round;stroke-linejoin:round;stroke-width:2.5px;}</style></defs><title>Logo main</title><rect class="a" x="61.48" y="60.59" width="35.48" height="35.48" transform="translate(158.44 156.65) rotate(180)"/><rect class="a" x="20" y="60.59" width="35.48" height="35.48" transform="translate(75.48 156.65) rotate(180)"/><rect class="a" x="61.48" y="20.21" width="35.48" height="35.48" transform="translate(158.44 75.9) rotate(180)"/><polygon class="b" points="147.03 46.41 127.51 36.76 137.57 2 156.21 16.93 147.03 46.41"/><polygon class="b" points="147.03 46.41 127.51 36.76 100.63 31.97 122.53 41.65 147.03 46.41"/><polygon class="b" points="100.63 31.97 127.51 36.76 137.57 2 109.96 2.56 100.63 31.97"/><rect class="a" x="20" y="20.21" width="35.48" height="35.48" transform="translate(75.48 75.9) rotate(180)"/><rect class="a" x="102.74" y="60.59" width="35.48" height="35.48" transform="translate(240.95 156.65) rotate(180)"/><rect class="a" x="61.48" y="102.04" width="35.48" height="35.48" transform="translate(158.44 239.55) rotate(180)"/><rect class="a" x="20" y="102.04" width="35.48" height="35.48" transform="translate(75.48 239.55) rotate(180)"/><rect class="a" x="102.74" y="102.04" width="35.48" height="35.48" transform="translate(240.95 239.55) rotate(180)"/><path class="a" d="M214.15,102.8c-2,1-6.5,2.07-12.35,2.07-16.62,0-25.18-10.35-25.18-24,0-16.41,11.7-25.54,26.26-25.54,5.63,0,9.91,1.14,11.84,2.14l-2.22,8.63a23.4,23.4,0,0,0-9.13-1.78c-8.63,0-15.33,5.2-15.33,15.9,0,9.63,5.7,15.7,15.41,15.7a27.22,27.22,0,0,0,9.05-1.57Z"/><path class="a" d="M252.38,93c0,4.57.14,8.28.28,11.2h-9.41l-.5-4.92h-.22a12.42,12.42,0,0,1-10.91,5.71c-7.06,0-12.27-4.43-12.27-15.2V69.27h10.91V88c0,5.07,1.65,8.13,5.43,8.13a5.85,5.85,0,0,0,5.42-3.78,6.15,6.15,0,0,0,.35-2.35V69.27h10.92Z"/><path class="a" d="M261,94.67a21.18,21.18,0,0,0,9.34,2.63c3.28,0,4.64-1.14,4.64-2.92s-1.07-2.64-5.14-4c-7.2-2.42-10-6.34-9.91-10.48,0-6.49,5.56-11.42,14.19-11.42a23.41,23.41,0,0,1,9.85,2L282.05,78a17.19,17.19,0,0,0-7.56-2c-2.64,0-4.14,1.06-4.14,2.85s1.36,2.5,5.64,4c6.63,2.29,9.41,5.64,9.48,10.77,0,6.5-5.13,11.28-15.12,11.28a24.67,24.67,0,0,1-11.27-2.43Z"/><path class="a" d="M304.16,59.28v10h7.78v8h-7.78V89.89c0,4.2,1,6.13,4.28,6.13a16.92,16.92,0,0,0,3.21-.29l.07,8.21a21.22,21.22,0,0,1-7.06.93,11.29,11.29,0,0,1-8.13-3c-2-2.07-3-5.42-3-10.34V77.26H288.9v-8h4.63V61.71Z"/><path class="a" d="M352.31,86.32c0,12.77-9.06,18.62-18.4,18.62-10.2,0-18.05-6.71-18.05-18s7.42-18.48,18.62-18.48C345.18,68.48,352.31,75.83,352.31,86.32Zm-25.25.36c0,6,2.49,10.48,7.13,10.48,4.21,0,6.92-4.21,6.92-10.48,0-5.21-2-10.49-6.92-10.49C329,76.19,327.06,81.54,327.06,86.68Z"/><path class="a" d="M359,80.4c0-4.35-.14-8.06-.28-11.13h9.13l.5,4.71h.21a12.11,12.11,0,0,1,10.56-5.5c4.49,0,8.06,2.29,9.56,5.93h.14a15.49,15.49,0,0,1,4.49-4.21A12.63,12.63,0,0,1,400,68.48c6.7,0,11.77,4.71,11.77,15.13v20.54H401.17v-19c0-5.07-1.64-8-5.13-8A5.31,5.31,0,0,0,391,81a9.18,9.18,0,0,0-.43,2.78v20.4H380.06V84.61c0-4.43-1.57-7.42-5-7.42A5.51,5.51,0,0,0,370,81.11a7.15,7.15,0,0,0-.43,2.71v20.33H359Z"/><path class="a" d="M435.12,56.71a89.27,89.27,0,0,1,14.7-1c6.7,0,11.48,1.28,14.69,3.85a14,14,0,0,1,5.14,11.13c0,4.7-1.57,8.7-4.43,11.41-3.71,3.5-9.2,5.06-15.62,5.06a27.88,27.88,0,0,1-3.71-.21v17.19H435.12Zm10.77,21.83a16.24,16.24,0,0,0,3.64.29c5.78,0,9.35-2.93,9.35-7.85,0-4.42-3.07-7.06-8.49-7.06a18.22,18.22,0,0,0-4.5.43Z"/><path class="a" d="M475.57,80.75c0-5.13-.15-8.48-.29-11.48h9.34l.36,6.42h.29a10.24,10.24,0,0,1,9.41-7.21,10.73,10.73,0,0,1,2.29.15v10.2a15.86,15.86,0,0,0-2.93-.29c-4,0-6.7,2.14-7.42,5.5a13,13,0,0,0-.21,2.42v17.69H475.57Z"/><path class="a" d="M536.55,86.32c0,12.77-9,18.62-18.4,18.62-10.2,0-18-6.71-18-18s7.42-18.48,18.62-18.48C529.42,68.48,536.55,75.83,536.55,86.32Zm-25.25.36c0,6,2.5,10.48,7.14,10.48,4.2,0,6.91-4.21,6.91-10.48,0-5.21-2-10.49-6.91-10.49C513.23,76.19,511.3,81.54,511.3,86.68Z"/><path class="a" d="M576.78,69.27c-.14,2.21-.28,5.14-.28,10.34V99.09c0,6.7-1.36,12.2-5.28,15.69-3.85,3.28-9.06,4.28-14.2,4.28-4.56,0-9.41-.93-12.55-2.71l2.14-8.2a21.48,21.48,0,0,0,10.13,2.64c5.13,0,9.06-2.79,9.06-9.21V99.3h-.15a11.13,11.13,0,0,1-9.41,4.57c-8.63,0-14.77-7-14.77-17.05,0-11.2,7.28-18.34,15.84-18.34,4.78,0,7.77,2.07,9.56,4.93H567l.36-4.14Zm-11.13,14.2a8.71,8.71,0,0,0-.21-2c-.78-2.86-2.85-4.78-5.85-4.78-3.92,0-7.13,3.57-7.13,9.91,0,5.21,2.57,9.28,7.13,9.28a5.9,5.9,0,0,0,5.71-4.43,9.33,9.33,0,0,0,.35-2.85Z"/><path class="a" d="M585.2,80.75c0-5.13-.15-8.48-.29-11.48h9.35l.35,6.42h.29a10.24,10.24,0,0,1,9.41-7.21,10.73,10.73,0,0,1,2.29.15v10.2a15.76,15.76,0,0,0-2.93-.29c-4,0-6.7,2.14-7.42,5.5a13,13,0,0,0-.21,2.42v17.69H585.2Z"/><path class="a" d="M631.35,104.15l-.64-3.49h-.22a12.57,12.57,0,0,1-10,4.28c-7.07,0-11.27-5.14-11.27-10.7,0-9.06,8.13-13.41,20.47-13.34v-.5c0-1.86-1-4.5-6.35-4.5a19.67,19.67,0,0,0-9.63,2.64l-2-7a28.9,28.9,0,0,1,13.56-3.07c11.62,0,15.33,6.85,15.33,15.06V95.66a54.76,54.76,0,0,0,.5,8.49Zm-1.28-16.48c-5.71-.07-10.13,1.29-10.13,5.5,0,2.78,1.85,4.13,4.28,4.13a5.91,5.91,0,0,0,5.63-4,7.9,7.9,0,0,0,.22-1.86Z"/><path class="a" d="M649.18,80.4c0-4.35-.14-8.06-.28-11.13H658l.5,4.71h.21a12.1,12.1,0,0,1,10.56-5.5c4.49,0,8.06,2.29,9.56,5.93H679a15.49,15.49,0,0,1,4.49-4.21,12.63,12.63,0,0,1,6.64-1.72c6.7,0,11.77,4.71,11.77,15.13v20.54H691.34v-19c0-5.07-1.64-8-5.14-8a5.3,5.3,0,0,0-5,3.78,8.88,8.88,0,0,0-.43,2.78v20.4H670.22V84.61c0-4.43-1.56-7.42-5-7.42a5.51,5.51,0,0,0-5.06,3.92,7.15,7.15,0,0,0-.43,2.71v20.33H649.18Z"/><path class="a" d="M710.52,80.4c0-4.35-.14-8.06-.28-11.13h9.13l.5,4.71h.21a12.11,12.11,0,0,1,10.56-5.5c4.49,0,8.06,2.29,9.56,5.93h.14a15.49,15.49,0,0,1,4.49-4.21,12.63,12.63,0,0,1,6.64-1.72c6.7,0,11.77,4.71,11.77,15.13v20.54H752.68v-19c0-5.07-1.64-8-5.13-8a5.32,5.32,0,0,0-5,3.78,9.18,9.18,0,0,0-.43,2.78v20.4H731.57V84.61c0-4.43-1.57-7.42-5-7.42a5.51,5.51,0,0,0-5.06,3.92,7.15,7.15,0,0,0-.43,2.71v20.33H710.52Z"/><path class="a" d="M783.07,59.57c0,3-2.29,5.42-5.85,5.42a5.31,5.31,0,0,1-5.64-5.42c-.07-3.14,2.21-5.49,5.71-5.49A5.44,5.44,0,0,1,783.07,59.57Zm-11.2,44.58V69.27h10.84v34.88Z"/><path class="a" d="M791.41,80.4c0-4.35-.14-8.06-.29-11.13h9.42l.5,4.78h.21A12.79,12.79,0,0,1,812,68.48c7.14,0,12.49,4.71,12.49,15v20.68H813.67V84.82c0-4.49-1.57-7.56-5.5-7.56a5.79,5.79,0,0,0-5.49,4.07,7.33,7.33,0,0,0-.43,2.71v20.11H791.41Z"/><path class="a" d="M866.52,69.27c-.14,2.21-.28,5.14-.28,10.34V99.09c0,6.7-1.36,12.2-5.28,15.69-3.85,3.28-9.06,4.28-14.2,4.28-4.56,0-9.41-.93-12.55-2.71l2.14-8.2a21.48,21.48,0,0,0,10.13,2.64c5.13,0,9.06-2.79,9.06-9.21V99.3h-.15a11.13,11.13,0,0,1-9.41,4.57c-8.63,0-14.77-7-14.77-17.05,0-11.2,7.28-18.34,15.84-18.34,4.78,0,7.77,2.07,9.56,4.93h.14l.36-4.14Zm-11.13,14.2a8.71,8.71,0,0,0-.21-2c-.78-2.86-2.85-4.78-5.85-4.78-3.92,0-7.13,3.57-7.13,9.91,0,5.21,2.56,9.28,7.13,9.28A5.9,5.9,0,0,0,855,91.45a9.33,9.33,0,0,0,.35-2.85Z"/><path class="a" d="M890.06,93a27.69,27.69,0,0,0,12.05,3c5,0,7.64-2.07,7.64-5.21,0-3-2.29-4.71-8.06-6.78-8-2.78-13.2-7.2-13.2-14.19,0-8.2,6.85-14.48,18.19-14.48A29.56,29.56,0,0,1,919,57.71l-2.43,8.78a22.78,22.78,0,0,0-10.06-2.29c-4.7,0-7,2.14-7,4.64,0,3.07,2.71,4.42,8.92,6.78,8.49,3.14,12.49,7.56,12.49,14.34,0,8.06-6.21,14.91-19.41,14.91-5.49,0-10.91-1.43-13.62-2.93Z"/><path class="a" d="M962.81,86.32c0,12.77-9,18.62-18.4,18.62-10.2,0-18-6.71-18-18S933.78,68.48,945,68.48C955.68,68.48,962.81,75.83,962.81,86.32Zm-25.25.36c0,6,2.5,10.48,7.14,10.48,4.2,0,6.92-4.21,6.92-10.48,0-5.21-2-10.49-6.92-10.49C939.49,76.19,937.56,81.54,937.56,86.68Z"/><path class="a" d="M969.52,53.5h10.84v50.65H969.52Z"/><path class="a" d="M1022,93c0,4.57.14,8.28.28,11.2h-9.41l-.5-4.92h-.22a12.42,12.42,0,0,1-10.91,5.71c-7.06,0-12.27-4.43-12.27-15.2V69.27H999.9V88c0,5.07,1.64,8.13,5.43,8.13a5.85,5.85,0,0,0,5.42-3.78,6.15,6.15,0,0,0,.35-2.35V69.27H1022Z"/><path class="a" d="M1042.84,59.28v10h7.78v8h-7.78V89.89c0,4.2,1,6.13,4.28,6.13a16.92,16.92,0,0,0,3.21-.29l.08,8.21a21.33,21.33,0,0,1-7.07.93,11.29,11.29,0,0,1-8.13-3c-2-2.07-3-5.42-3-10.34V77.26h-4.64v-8h4.64V61.71Z"/><path class="a" d="M1068.09,59.57c0,3-2.28,5.42-5.85,5.42a5.3,5.3,0,0,1-5.63-5.42c-.07-3.14,2.21-5.49,5.71-5.49A5.43,5.43,0,0,1,1068.09,59.57Zm-11.2,44.58V69.27h10.85v34.88Z"/><path class="a" d="M1110.89,86.32c0,12.77-9.06,18.62-18.4,18.62-10.2,0-18-6.71-18-18s7.42-18.48,18.62-18.48C1103.76,68.48,1110.89,75.83,1110.89,86.32Zm-25.25.36c0,6,2.5,10.48,7.13,10.48,4.21,0,6.92-4.21,6.92-10.48,0-5.21-2-10.49-6.92-10.49C1087.57,76.19,1085.64,81.54,1085.64,86.68Z"/><path class="a" d="M1117.6,80.4c0-4.35-.15-8.06-.29-11.13h9.42l.5,4.78h.21a12.77,12.77,0,0,1,10.77-5.57c7.13,0,12.49,4.71,12.49,15v20.68h-10.85V84.82c0-4.49-1.57-7.56-5.49-7.56a5.78,5.78,0,0,0-5.49,4.07,7.33,7.33,0,0,0-.43,2.71v20.11H1117.6Z"/><path class="a" d="M1159.32,94.67a21.26,21.26,0,0,0,9.35,2.63c3.28,0,4.63-1.14,4.63-2.92s-1.07-2.64-5.13-4c-7.21-2.42-10-6.34-9.92-10.48,0-6.49,5.57-11.42,14.2-11.42a23.4,23.4,0,0,1,9.84,2L1180.37,78a17.23,17.23,0,0,0-7.56-2c-2.64,0-4.14,1.06-4.14,2.85s1.35,2.5,5.63,4c6.64,2.29,9.42,5.64,9.49,10.77,0,6.5-5.13,11.28-15.12,11.28a24.64,24.64,0,0,1-11.27-2.43Z"/></svg>